<svg data-v-423bf9ae="" xmlns="http://www.w3.org/2000/svg" viewBox="0 0 389 90" class="iconLeft"><!----><!----><!----><g data-v-423bf9ae="" id="9ef1e593-8f40-4373-8ae2-839268800c18" fill="#ffffff" transform="matrix(5.39083552408516,0,0,5.39083552408516,110.327706176834,-2.035039049878179)"><path d="M8.47 8.95C8.47 7.29 8.46 6.23 7.48 5.25C6.78 4.55 5.64 4.16 4.51 4.16C3.37 4.16 2.23 4.55 1.53 5.25C0.57 6.20 0.55 7.38 0.55 8.96L0.55 9.49C0.55 11.07 0.57 12.25 1.53 13.20C2.23 13.90 3.37 14.29 4.51 14.29L8.71 14.29L8.71 12.57C8.23 12.71 7.76 12.78 7.28 12.81C8.13 12.15 8.47 10.95 8.47 9.52ZM6.52 9.44C6.52 11.12 6.48 12.56 4.51 12.56C2.48 12.56 2.51 11.00 2.49 9.48L2.49 8.96C2.49 7.29 2.55 5.89 4.51 5.89C6.44 5.89 6.52 7.31 6.52 8.76ZM16.00 14.21L16.00 6.22L14.18 6.22L14.18 11.63L12.54 12.52C11.97 12.52 11.48 12.18 11.48 11.19L11.48 6.22L9.66 6.22L9.66 11.58C9.66 12.38 9.81 13.06 10.40 13.65C10.81 14.06 11.26 14.29 11.98 14.29L14.22 13.26L14.64 14.21ZM20.02 4.21C20.02 3.35 19.84 3.16 18.97 3.16C18.10 3.16 17.91 3.35 17.91 4.21C17.91 5.08 18.10 5.28 18.97 5.28C19.84 5.28 20.02 5.08 20.02 4.21ZM19.87 14.21L19.87 6.51L18.05 6.51L18.05 14.21ZM26.95 14.21L26.95 12.64L23.11 12.64L27.09 7.60L27.09 6.22L21.57 6.22L21.57 7.78L24.91 7.78L21.57 11.91C21.25 12.33 21.11 12.75 21.11 13.10C21.11 13.75 21.62 14.21 22.60 14.21ZM35.88 7.63C35.88 5.38 34.65 4.24 32.59 4.24L28.73 4.24L28.73 14.21L30.67 14.21L30.67 11.02L32.59 11.02C34.65 11.02 35.88 9.88 35.88 7.63ZM33.94 7.63C33.94 8.86 33.38 9.27 32.49 9.27L30.67 9.27L30.67 5.98L32.49 5.98C33.38 5.98 33.94 6.40 33.94 7.63ZM43.36 14.21L43.36 6.22L41.54 6.22L41.54 11.63L39.90 12.52C39.33 12.52 38.84 12.18 38.84 11.19L38.84 6.22L37.02 6.22L37.02 11.58C37.02 12.38 37.17 13.06 37.76 13.65C38.16 14.06 38.61 14.29 39.34 14.29L41.58 13.26L42.00 14.21ZM51.60 14.21L51.60 8.85C51.60 8.05 51.45 7.36 50.86 6.78C50.46 6.37 50.01 6.13 49.28 6.13L47.04 7.17L46.62 6.22L45.26 6.22L45.26 14.21L47.08 14.21L47.08 8.60L48.72 7.91C49.29 7.91 49.78 8.11 49.78 9.10L49.78 14.21Z"></path></g><!----><g data-v-423bf9ae="" id="3e28843b-8a5a-4a1d-8efa-affee77cb49f" transform="matrix(1.4634146341463414,0,0,1.4634146341463414,-26.045726124833266,-28.036585365853654)" stroke="none" fill="#14D9D9"><path d="M78.8 47l-9.4-16.3c-4.1-7-11.3-11.2-19.4-11.2-8.1 0-15.4 4.2-19.4 11.2L21.2 47c-4.1 7-4.1 15.6 0 22.6 4.1 7 11.3 11.4 19.4 11.4h18.8c8.1 0 15.4-4.4 19.4-11.4 4.1-7 4.1-15.6 0-22.6zm-10.4 2c3.3 5.8 3.3 12.6 0 18.4-1.9 3.3-4.6 5.8-7.8 7.3 1.7-1.5 3.1-3.3 4.3-5.3 4.1-7 4.1-15.4 0-22.4l-3-5.2c.9.1 1.7.2 2.6.4l3.9 6.8zm-7.8-11.3c-8.1 0-15.4 4.2-19.4 11.2l-2.5 4.4c-.6-.5-1.1-1.1-1.6-1.7l4-6.9c3.3-5.8 9.3-9.2 15.9-9.2 3.9 0 7.5 1.2 10.6 3.3-2.3-.7-4.6-1.1-7-1.1zm-6.4 11.1c1.7 2.9 2.5 6.2 2.5 9.2h-5.6c-3.4 0-6.5-.8-9.3-2.4l2.8-4.7c1.7-2.9 4-5.3 6.8-6.8l2.8 4.7zm-25-4.3c.5 2.3 1.3 4.4 2.5 6.4C35.8 57.9 43 62 51.1 62h5.1c-.2 1-.4 2-.7 2h-8c-6.7 0-12.6-3.2-15.9-9-1.9-3.3-2.7-6.9-2.4-10.5zm34.5-11.9c-2.1-.7-4.4-1-6.7-1-8.1 0-15.4 4.2-19.4 11.2l-3 5.2c-.4-.8-.7-1.6-1-2.4l3.9-6.8c3.3-5.8 9.3-9.2 15.9-9.2 3.9-.1 7.4 1 10.3 3zm-38 18.2C26.2 53 27 55 28.2 57c4.1 7 11.3 11 19.4 11h6c-.5 1-1 2-1.6 3h-7.9c-6.7 0-12.6-3.7-15.9-9.5-1.9-3.2-2.8-7.1-2.5-10.7zm32 18.6c4.1-7 4.1-15.4 0-22.4l-2.5-4.4c.7-.2 1.5-.4 2.2-.5l4 6.9c3.3 5.8 3.3 12.6 0 18.4-1.9 3.4-4.8 5.9-8.1 7.5 1.6-1.6 3.2-3.4 4.4-5.5zm-7.7-46c3.8 0 7.3 1.1 10.3 3.1-2.2-.7-4.4-1-6.8-1-8.1 0-15.4 4.2-19.4 11.2L32.7 39c.1-2.5.7-5 1.9-7.4 3.5-5.1 9.1-8.2 15.4-8.2zm-25.4 44c-1.9-3.2-2.7-6.9-2.5-10.4.5 2.2 1.3 4.6 2.5 6.6C28.7 70.6 36 75 44.1 75h2.7c-2.2 1-4.7 1.6-7.4 1.8-6.2-.4-11.6-4-14.8-9.4zm50.8 0c-1.9 3.3-4.6 5.8-7.8 7.3 1.6-1.5 3.1-3.3 4.3-5.3 4.1-7 4.1-15.4 0-22.4l-1.3-2.3c2.1 1.4 4 3.2 5.4 5.4 2.7 5.4 2.5 11.8-.6 17.3z"></path></g><!----></svg>